# xmcd
#
# Track frame offsets:
#	150
#	19020
#	44317
#	64632
#	83507
#	102257
#	125015
#	141992
#	160795
#	173959
#
# Disc length: 2882 seconds
# Revision: 1
# Processed by: cddbd v1.5.2PL0 Copyright (c) Steve Scherf et al.
# Submitted via: dBpowerAMP V12.0
#
DISCID=7d0b400a
DTITLE=Various Artist - Goi nguoi mot niem vui
DYEAR=1996
DGENRE=Pop
TTITLE0=Nhu Quynh - Don xuan
TTITLE1=Thanh Lan - Hue xua
TTITLE2=Thanh Tuyen - Ve duoi mai nha
TTITLE3=Duy Khanh - Xuan nay con khong ve
TTITLE4=Johnny Dung, Lam Nhat Tien, Gia Huy, Nhat Quan - Mung xuan
TTITLE5=Thanh Thuy - Nua dem ngoai pho
TTITLE6=Thuy Vi - Co be doi hon
TTITLE7=Hung Cuong and Mai Le Huyen - Lam quen
TTITLE8=Cong Thanh and Lynn - Khi da yeu em
TTITLE9=AVT Lu Lien, Truong Duy, Hoang Long - Chuc xuan
EXTD=
EXTT0=
EXTT1=
EXTT2=
EXTT3=
EXTT4=
EXTT5=
EXTT6=
EXTT7=
EXTT8=
EXTT9=
PLAYORDER=
